<?xml version="1.0" encoding="UTF-8" standalone="no"?>
<!DOCTYPE svg PUBLIC "-//W3C//DTD SVG 1.1//EN" "http://www.w3.org/Graphics/SVG/1.1/DTD/svg11.dtd">
<svg version="1.1" xmlns="http://www.w3.org/2000/svg" xmlns:xlink="http://www.w3.org/1999/xlink" preserveAspectRatio="xMidYMid meet" viewBox="0 0 640 640" width="640" height="640"><defs><path d="M110 315.28L530 315.28L530 372.49L110 372.49L110 315.28Z" id="af5z02OHO"></path><path d="M100 372.49L540 372.49L540 397.83L100 397.83L100 372.49Z" id="b8HauDD98"></path><path d="M120 397.83L520 397.83L520 497.83L120 497.83L120 397.83Z" id="b7ab1KJYF4"></path><path d="M100 241.72L540 241.72L540 262.15L100 262.15L100 241.72Z" id="dxfbCUXJ5"></path><path d="M142.23 262.15L497.76 262.15L497.76 315.28L142.23 315.28L142.23 262.15Z" id="c21NVVuZv3"></path><path d="M520 142.17L120 142.17L120 242.17L520 242.17L520 142.17Z" id="c1Gadt9u1T"></path></defs><g><g><g><use xlink:href="#af5z02OHO" opacity="1" fill="#006e23" fill-opacity="1"></use></g><g><use xlink:href="#b8HauDD98" opacity="1" fill="#edce00" fill-opacity="1"></use></g><g><use xlink:href="#b7ab1KJYF4" opacity="1" fill="#cd703c" fill-opacity="1"></use></g><g><use xlink:href="#dxfbCUXJ5" opacity="1" fill="#b40000" fill-opacity="1"></use></g><g><use xlink:href="#c21NVVuZv3" opacity="1" fill="#800000" fill-opacity="1"></use></g><g><use xlink:href="#c1Gadt9u1T" opacity="1" fill="#cd703c" fill-opacity="1"></use></g></g></g></svg>